<mxfile host="app.diagrams.net" modified="2023-07-16T02:38:23.725Z" agent="Mozilla/5.0 (X11; Linux x86_64) AppleWebKit/537.36 (KHTML, like Gecko) Chrome/114.0.0.0 Safari/537.36" etag="XxVZL2DcIYQrdoWPSdVW" version="21.6.2" type="github">
  <diagram id="C5RBs43oDa-KdzZeNtuy" name="Page-1">
    <mxGraphModel dx="1050" dy="569" grid="1" gridSize="10" guides="1" tooltips="1" connect="1" arrows="1" fold="1" page="1" pageScale="1" pageWidth="827" pageHeight="1169" math="0" shadow="0">
      <root>
        <mxCell id="WIyWlLk6GJQsqaUBKTNV-0" />
        <mxCell id="WIyWlLk6GJQsqaUBKTNV-1" parent="WIyWlLk6GJQsqaUBKTNV-0" />
        <mxCell id="r5VBly-w0Fa5-UkobErL-29" value="" style="edgeStyle=orthogonalEdgeStyle;rounded=0;orthogonalLoop=1;jettySize=auto;html=1;" edge="1" parent="WIyWlLk6GJQsqaUBKTNV-1" source="r5VBly-w0Fa5-UkobErL-0" target="r5VBly-w0Fa5-UkobErL-28">
          <mxGeometry relative="1" as="geometry" />
        </mxCell>
        <mxCell id="r5VBly-w0Fa5-UkobErL-0" value="Sign up / register&amp;nbsp;" style="rounded=1;whiteSpace=wrap;html=1;" vertex="1" parent="WIyWlLk6GJQsqaUBKTNV-1">
          <mxGeometry x="359" y="170" width="150" height="40" as="geometry" />
        </mxCell>
        <mxCell id="r5VBly-w0Fa5-UkobErL-19" value="email string" style="text;strokeColor=none;fillColor=none;align=left;verticalAlign=middle;spacingLeft=4;spacingRight=4;overflow=hidden;points=[[0,0.5],[1,0.5]];portConstraint=eastwest;rotatable=0;whiteSpace=wrap;html=1;" vertex="1" parent="WIyWlLk6GJQsqaUBKTNV-1">
          <mxGeometry x="690" y="90" width="80" height="30" as="geometry" />
        </mxCell>
        <mxCell id="r5VBly-w0Fa5-UkobErL-21" value="unique password" style="text;strokeColor=none;fillColor=none;align=left;verticalAlign=middle;spacingLeft=4;spacingRight=4;overflow=hidden;points=[[0,0.5],[1,0.5]];portConstraint=eastwest;rotatable=0;whiteSpace=wrap;html=1;" vertex="1" parent="WIyWlLk6GJQsqaUBKTNV-1">
          <mxGeometry x="694" y="125" width="80" height="30" as="geometry" />
        </mxCell>
        <mxCell id="r5VBly-w0Fa5-UkobErL-23" value="name" style="text;strokeColor=none;fillColor=none;align=left;verticalAlign=middle;spacingLeft=4;spacingRight=4;overflow=hidden;points=[[0,0.5],[1,0.5]];portConstraint=eastwest;rotatable=0;whiteSpace=wrap;html=1;" vertex="1" parent="WIyWlLk6GJQsqaUBKTNV-1">
          <mxGeometry x="691" y="65" width="80" height="30" as="geometry" />
        </mxCell>
        <mxCell id="r5VBly-w0Fa5-UkobErL-25" value="username" style="text;strokeColor=none;fillColor=none;align=left;verticalAlign=middle;spacingLeft=4;spacingRight=4;overflow=hidden;points=[[0,0.5],[1,0.5]];portConstraint=eastwest;rotatable=0;whiteSpace=wrap;html=1;" vertex="1" parent="WIyWlLk6GJQsqaUBKTNV-1">
          <mxGeometry x="690" y="40" width="80" height="30" as="geometry" />
        </mxCell>
        <mxCell id="r5VBly-w0Fa5-UkobErL-70" value="" style="edgeStyle=orthogonalEdgeStyle;rounded=0;orthogonalLoop=1;jettySize=auto;html=1;" edge="1" parent="WIyWlLk6GJQsqaUBKTNV-1" source="r5VBly-w0Fa5-UkobErL-28" target="r5VBly-w0Fa5-UkobErL-68">
          <mxGeometry relative="1" as="geometry" />
        </mxCell>
        <mxCell id="r5VBly-w0Fa5-UkobErL-71" value="False" style="edgeLabel;html=1;align=center;verticalAlign=middle;resizable=0;points=[];" vertex="1" connectable="0" parent="r5VBly-w0Fa5-UkobErL-70">
          <mxGeometry x="-0.0319" y="1" relative="1" as="geometry">
            <mxPoint as="offset" />
          </mxGeometry>
        </mxCell>
        <mxCell id="r5VBly-w0Fa5-UkobErL-78" value="" style="edgeStyle=orthogonalEdgeStyle;rounded=0;orthogonalLoop=1;jettySize=auto;html=1;" edge="1" parent="WIyWlLk6GJQsqaUBKTNV-1" source="r5VBly-w0Fa5-UkobErL-28" target="r5VBly-w0Fa5-UkobErL-73">
          <mxGeometry relative="1" as="geometry" />
        </mxCell>
        <mxCell id="r5VBly-w0Fa5-UkobErL-28" value="is input valid?" style="rhombus;whiteSpace=wrap;html=1;fillColor=#f0a30a;strokeColor=#BD7000;fontColor=#000000;" vertex="1" parent="WIyWlLk6GJQsqaUBKTNV-1">
          <mxGeometry x="369" y="270" width="130" height="80" as="geometry" />
        </mxCell>
        <mxCell id="r5VBly-w0Fa5-UkobErL-65" value="" style="edgeStyle=orthogonalEdgeStyle;rounded=0;orthogonalLoop=1;jettySize=auto;html=1;" edge="1" parent="WIyWlLk6GJQsqaUBKTNV-1" source="r5VBly-w0Fa5-UkobErL-55" target="r5VBly-w0Fa5-UkobErL-19">
          <mxGeometry relative="1" as="geometry">
            <Array as="points" />
          </mxGeometry>
        </mxCell>
        <mxCell id="r5VBly-w0Fa5-UkobErL-67" value="" style="edgeStyle=orthogonalEdgeStyle;rounded=0;orthogonalLoop=1;jettySize=auto;html=1;" edge="1" parent="WIyWlLk6GJQsqaUBKTNV-1" source="r5VBly-w0Fa5-UkobErL-55" target="r5VBly-w0Fa5-UkobErL-0">
          <mxGeometry relative="1" as="geometry" />
        </mxCell>
        <mxCell id="r5VBly-w0Fa5-UkobErL-55" value="" style="shape=actor;whiteSpace=wrap;html=1;" vertex="1" parent="WIyWlLk6GJQsqaUBKTNV-1">
          <mxGeometry x="570" y="110" width="40" height="60" as="geometry" />
        </mxCell>
        <mxCell id="r5VBly-w0Fa5-UkobErL-68" value="Throw error to input user" style="rounded=0;whiteSpace=wrap;html=1;fillColor=#f8cecc;strokeColor=#b85450;" vertex="1" parent="WIyWlLk6GJQsqaUBKTNV-1">
          <mxGeometry x="180" y="280" width="120" height="60" as="geometry" />
        </mxCell>
        <mxCell id="r5VBly-w0Fa5-UkobErL-82" value="" style="edgeStyle=orthogonalEdgeStyle;rounded=0;orthogonalLoop=1;jettySize=auto;html=1;" edge="1" parent="WIyWlLk6GJQsqaUBKTNV-1" source="r5VBly-w0Fa5-UkobErL-73" target="r5VBly-w0Fa5-UkobErL-80">
          <mxGeometry relative="1" as="geometry" />
        </mxCell>
        <mxCell id="r5VBly-w0Fa5-UkobErL-73" value="" style="shape=cylinder3;whiteSpace=wrap;html=1;boundedLbl=1;backgroundOutline=1;size=15;fillColor=#dae8fc;strokeColor=#6c8ebf;" vertex="1" parent="WIyWlLk6GJQsqaUBKTNV-1">
          <mxGeometry x="404" y="410" width="60" height="80" as="geometry" />
        </mxCell>
        <mxCell id="r5VBly-w0Fa5-UkobErL-76" value="Authenticate" style="text;html=1;strokeColor=none;fillColor=none;align=center;verticalAlign=middle;whiteSpace=wrap;rounded=0;" vertex="1" parent="WIyWlLk6GJQsqaUBKTNV-1">
          <mxGeometry x="404" y="510" width="60" height="30" as="geometry" />
        </mxCell>
        <mxCell id="r5VBly-w0Fa5-UkobErL-79" value="Email &amp;amp; Password provider from firebase" style="text;html=1;strokeColor=none;fillColor=none;align=center;verticalAlign=middle;whiteSpace=wrap;rounded=0;" vertex="1" parent="WIyWlLk6GJQsqaUBKTNV-1">
          <mxGeometry x="364" y="540" width="140" height="30" as="geometry" />
        </mxCell>
        <mxCell id="r5VBly-w0Fa5-UkobErL-84" value="" style="edgeStyle=orthogonalEdgeStyle;rounded=0;orthogonalLoop=1;jettySize=auto;html=1;" edge="1" parent="WIyWlLk6GJQsqaUBKTNV-1" source="r5VBly-w0Fa5-UkobErL-80" target="r5VBly-w0Fa5-UkobErL-83">
          <mxGeometry relative="1" as="geometry" />
        </mxCell>
        <mxCell id="r5VBly-w0Fa5-UkobErL-85" value="False" style="edgeLabel;html=1;align=center;verticalAlign=middle;resizable=0;points=[];" vertex="1" connectable="0" parent="r5VBly-w0Fa5-UkobErL-84">
          <mxGeometry x="-0.102" y="2" relative="1" as="geometry">
            <mxPoint x="-2" y="-2" as="offset" />
          </mxGeometry>
        </mxCell>
        <mxCell id="r5VBly-w0Fa5-UkobErL-80" value="is success ?" style="rhombus;whiteSpace=wrap;html=1;fillColor=#f0a30a;fontColor=#000000;strokeColor=#BD7000;" vertex="1" parent="WIyWlLk6GJQsqaUBKTNV-1">
          <mxGeometry x="542" y="415" width="96" height="70" as="geometry" />
        </mxCell>
        <mxCell id="r5VBly-w0Fa5-UkobErL-83" value="Throw error occured from firebase" style="rounded=0;whiteSpace=wrap;html=1;fillColor=#f8cecc;strokeColor=#b85450;" vertex="1" parent="WIyWlLk6GJQsqaUBKTNV-1">
          <mxGeometry x="691" y="420" width="120" height="60" as="geometry" />
        </mxCell>
      </root>
    </mxGraphModel>
  </diagram>
</mxfile>
